<svg width="470" height="881" viewBox="0 0 470 881" fill="none" xmlns="http://www.w3.org/2000/svg">
<g filter="url(#filter0_d_2005_3494)">
<g filter="url(#filter1_gn_2005_3494)">
<path d="M140.365 183.746C131.213 220.966 132.712 254.345 189.179 316.763H215.416L196.501 296.627C177.586 276.492 159.704 248.831 156.23 224.017C151.959 193.508 175.755 159.949 196.501 150.186C212.365 142.721 245.041 141.097 258.738 155.678C277.653 175.814 275.823 211.007 242.264 224.017C228.23 229.457 217.155 226.439 215.416 219.136C212.365 206.322 223.959 206.322 219.687 195.949C212.365 185.576 196.739 191.816 194.67 203.881C191.009 225.237 202.603 242.322 223.348 244.763C253.247 248.28 278.874 230.119 288.637 202.661C294.128 175.814 292.297 153.237 270.331 136.153C230.06 108.695 162.331 125.78 140.365 183.746Z" fill="#D98D50"/>
<path d="M140.365 183.746C131.213 220.966 132.712 254.345 189.179 316.763H215.416L196.501 296.627C177.586 276.492 159.704 248.831 156.23 224.017C151.959 193.508 175.755 159.949 196.501 150.186C212.365 142.721 245.041 141.097 258.738 155.678C277.653 175.814 275.823 211.007 242.264 224.017C228.23 229.457 217.155 226.439 215.416 219.136C212.365 206.322 223.959 206.322 219.687 195.949C212.365 185.576 196.739 191.816 194.67 203.881C191.009 225.237 202.603 242.322 223.348 244.763C253.247 248.28 278.874 230.119 288.637 202.661C294.128 175.814 292.297 153.237 270.331 136.153C230.06 108.695 162.331 125.78 140.365 183.746Z" stroke="#D98D50" stroke-width="5"/>
<path d="M140.365 183.746C131.213 220.966 132.712 254.345 189.179 316.763H215.416L196.501 296.627C177.586 276.492 159.704 248.831 156.23 224.017C151.959 193.508 175.755 159.949 196.501 150.186C212.365 142.721 245.041 141.097 258.738 155.678C277.653 175.814 275.823 211.007 242.264 224.017C228.23 229.457 217.155 226.439 215.416 219.136C212.365 206.322 223.959 206.322 219.687 195.949C212.365 185.576 196.739 191.816 194.67 203.881C191.009 225.237 202.603 242.322 223.348 244.763C253.247 248.28 278.874 230.119 288.637 202.661C294.128 175.814 292.297 153.237 270.331 136.153C230.06 108.695 162.331 125.78 140.365 183.746Z" stroke="black" stroke-opacity="0.2" stroke-width="5"/>
</g>
<g filter="url(#filter2_gn_2005_3494)">
<path d="M335.62 154.234C325.181 75.1782 301.028 34.5085 223.348 19V38.2305C294.111 54.3593 321.661 111.431 314.379 191.454C314.379 191.454 310.738 219.37 297.387 239.841C284.035 260.312 262.795 268.376 255.513 286.366C248.23 304.356 250.051 306.217 250.051 316.763H271.291C271.127 304.987 271.56 298.985 275.539 291.949L291.318 278.302C327.978 244.921 334.16 217.444 335.62 154.234Z" fill="#D98D50"/>
<path d="M335.62 154.234C325.181 75.1782 301.028 34.5085 223.348 19V38.2305C294.111 54.3593 321.661 111.431 314.379 191.454C314.379 191.454 310.738 219.37 297.387 239.841C284.035 260.312 262.795 268.376 255.513 286.366C248.23 304.356 250.051 306.217 250.051 316.763H271.291C271.127 304.987 271.56 298.985 275.539 291.949L291.318 278.302C327.978 244.921 334.16 217.444 335.62 154.234Z" stroke="#D98D50" stroke-width="5"/>
<path d="M335.62 154.234C325.181 75.1782 301.028 34.5085 223.348 19V38.2305C294.111 54.3593 321.661 111.431 314.379 191.454C314.379 191.454 310.738 219.37 297.387 239.841C284.035 260.312 262.795 268.376 255.513 286.366C248.23 304.356 250.051 306.217 250.051 316.763H271.291C271.127 304.987 271.56 298.985 275.539 291.949L291.318 278.302C327.978 244.921 334.16 217.444 335.62 154.234Z" stroke="black" stroke-opacity="0.2" stroke-width="5"/>
</g>
<g filter="url(#filter3_dn_2005_3494)">
<mask id="path-3-inside-1_2005_3494" fill="white">
<path d="M405.848 332.627V396.085H451V438.797H19V396.085H64.1523V332.627H405.848Z"/>
</mask>
<path d="M405.848 332.627V396.085H451V438.797H19V396.085H64.1523V332.627H405.848Z" fill="#005F73"/>
<path d="M405.848 332.627H408.848V329.627H405.848V332.627ZM405.848 396.085H402.848V399.085H405.848V396.085ZM451 396.085H454V393.085H451V396.085ZM451 438.797V441.797H454V438.797H451ZM19 438.797H16V441.797H19V438.797ZM19 396.085V393.085H16V396.085H19ZM64.1523 396.085V399.085H67.1523V396.085H64.1523ZM64.1523 332.627V329.627H61.1523V332.627H64.1523ZM405.848 332.627H402.848V396.085H405.848H408.848V332.627H405.848ZM405.848 396.085V399.085H451V396.085V393.085H405.848V396.085ZM451 396.085H448V438.797H451H454V396.085H451ZM451 438.797V435.797H19V438.797V441.797H451V438.797ZM19 438.797H22V396.085H19H16V438.797H19ZM19 396.085V399.085H64.1523V396.085V393.085H19V396.085ZM64.1523 396.085H67.1523V332.627H64.1523H61.1523V396.085H64.1523ZM64.1523 332.627V335.627H405.848V332.627V329.627H64.1523V332.627Z" fill="#003944" mask="url(#path-3-inside-1_2005_3494)"/>
</g>
<path d="M415.854 462.542L364.687 854.372H114.421L54.2249 462.542H415.854Z" fill="#C2602B" stroke="#A94D1B" stroke-width="6"/>
<g opacity="0.59" filter="url(#filter4_g_2005_3494)">
<path d="M251.035 749.537C264.036 749.537 273.361 732.006 258.562 724.215C225.717 721.284 157.102 713.089 144.288 640.458C137.164 604.347 154.552 568.388 177.817 543.715C207.926 521.64 255.141 508.654 293.46 524.886C327.741 538.481 329.727 557.35 323.569 595.658C311.256 622.059 304.527 634.333 287.302 646.301C271.139 655.391 262.815 657.98 247.614 656.04C218.19 644.51 206.84 634.356 218.874 595.658C231.699 575.03 255.825 570.985 267.458 587.217C275.669 598.255 274.579 611.847 261.299 617.084C253.496 618.4 250.677 616.624 251.035 604.747C251.184 598.155 248.823 596.074 242.139 595.658C242.139 595.658 229.822 604.747 229.822 613.837C229.074 632.7 247.614 643.704 264.036 640.458C283.196 637.211 296.21 617.027 293.46 588.516C284.694 560.411 270.424 553.513 227.77 557.35C196.509 575.16 188.516 589.489 190.134 622.278C195.372 662.908 225.717 678.765 258.562 678.765C298.25 676.817 321.101 656.967 344.097 610.591C359.835 557.35 349.571 519.043 300.987 501.512C261.221 488.582 208.61 500.863 177.817 519.043C147.025 537.222 101.513 588.154 123.759 661.235C146.005 734.316 237.889 753.279 251.035 749.537Z" fill="#B59D70"/>
<path d="M251.035 749.537C264.036 749.537 273.361 732.006 258.562 724.215C225.717 721.284 157.102 713.089 144.288 640.458C137.164 604.347 154.552 568.388 177.817 543.715C207.926 521.64 255.141 508.654 293.46 524.886C327.741 538.481 329.727 557.35 323.569 595.658C311.256 622.059 304.527 634.333 287.302 646.301C271.139 655.391 262.815 657.98 247.614 656.04C218.19 644.51 206.84 634.356 218.874 595.658C231.699 575.03 255.825 570.985 267.458 587.217C275.669 598.255 274.579 611.847 261.299 617.084C253.496 618.4 250.677 616.624 251.035 604.747C251.184 598.155 248.823 596.074 242.139 595.658C242.139 595.658 229.822 604.747 229.822 613.837C229.074 632.7 247.614 643.704 264.036 640.458C283.196 637.211 296.21 617.027 293.46 588.516C284.694 560.411 270.424 553.513 227.77 557.35C196.509 575.16 188.516 589.489 190.134 622.278C195.372 662.908 225.717 678.765 258.562 678.765C298.25 676.817 321.101 656.967 344.097 610.591C359.835 557.35 349.571 519.043 300.987 501.512C261.221 488.582 208.61 500.863 177.817 519.043C147.025 537.222 101.513 588.154 123.759 661.235C146.005 734.316 237.889 753.279 251.035 749.537Z" stroke="#793007" stroke-width="5"/>
<path d="M251.035 749.537C264.036 749.537 273.361 732.006 258.562 724.215C225.717 721.284 157.102 713.089 144.288 640.458C137.164 604.347 154.552 568.388 177.817 543.715C207.926 521.64 255.141 508.654 293.46 524.886C327.741 538.481 329.727 557.35 323.569 595.658C311.256 622.059 304.527 634.333 287.302 646.301C271.139 655.391 262.815 657.98 247.614 656.04C218.19 644.51 206.84 634.356 218.874 595.658C231.699 575.03 255.825 570.985 267.458 587.217C275.669 598.255 274.579 611.847 261.299 617.084C253.496 618.4 250.677 616.624 251.035 604.747C251.184 598.155 248.823 596.074 242.139 595.658C242.139 595.658 229.822 604.747 229.822 613.837C229.074 632.7 247.614 643.704 264.036 640.458C283.196 637.211 296.21 617.027 293.46 588.516C284.694 560.411 270.424 553.513 227.77 557.35C196.509 575.16 188.516 589.489 190.134 622.278C195.372 662.908 225.717 678.765 258.562 678.765C298.25 676.817 321.101 656.967 344.097 610.591C359.835 557.35 349.571 519.043 300.987 501.512C261.221 488.582 208.61 500.863 177.817 519.043C147.025 537.222 101.513 588.154 123.759 661.235C146.005 734.316 237.889 753.279 251.035 749.537Z" stroke="black" stroke-opacity="0.2" stroke-width="5"/>
</g>
<g filter="url(#filter5_dg_2005_3494)">
<path d="M246.373 766.003C257.966 766.003 266.281 749.528 253.085 742.206C223.797 739.453 162.614 731.751 151.187 663.494C144.834 629.559 160.339 595.766 181.085 572.579C207.933 551.833 250.034 539.63 284.204 554.884C314.772 567.66 316.543 585.393 311.051 621.393C300.072 646.204 294.072 657.738 278.712 668.986C264.3 677.528 256.878 679.961 243.322 678.138C217.085 667.302 206.964 657.76 217.695 621.393C229.131 602.008 250.644 598.206 261.017 613.461C268.339 623.833 267.367 636.607 255.526 641.528C248.568 642.766 246.054 641.097 246.373 629.935C246.506 623.74 244.401 621.784 238.441 621.393C238.441 621.393 227.458 629.935 227.458 638.478C226.791 656.204 243.322 666.545 257.966 663.494C275.051 660.444 286.656 641.475 284.204 614.681C276.386 588.269 263.663 581.787 225.627 585.393C197.752 602.13 190.625 615.595 192.068 646.41C196.739 684.592 223.797 699.494 253.085 699.494C288.475 697.664 308.851 679.01 329.356 635.427C343.39 585.393 334.238 549.393 290.916 532.918C255.456 520.767 208.543 532.308 181.085 549.393C153.627 566.477 113.045 614.341 132.882 683.02C152.718 751.699 234.651 769.52 246.373 766.003Z" fill="#B59D70"/>
<path d="M246.373 766.003C257.966 766.003 266.281 749.528 253.085 742.206C223.797 739.453 162.614 731.751 151.187 663.494C144.834 629.559 160.339 595.766 181.085 572.579C207.933 551.833 250.034 539.63 284.204 554.884C314.772 567.66 316.543 585.393 311.051 621.393C300.072 646.204 294.072 657.738 278.712 668.986C264.3 677.528 256.878 679.961 243.322 678.138C217.085 667.302 206.964 657.76 217.695 621.393C229.131 602.008 250.644 598.206 261.017 613.461C268.339 623.833 267.367 636.607 255.526 641.528C248.568 642.766 246.054 641.097 246.373 629.935C246.506 623.74 244.401 621.784 238.441 621.393C238.441 621.393 227.458 629.935 227.458 638.478C226.791 656.204 243.322 666.545 257.966 663.494C275.051 660.444 286.656 641.475 284.204 614.681C276.386 588.269 263.663 581.787 225.627 585.393C197.752 602.13 190.625 615.595 192.068 646.41C196.739 684.592 223.797 699.494 253.085 699.494C288.475 697.664 308.851 679.01 329.356 635.427C343.39 585.393 334.238 549.393 290.916 532.918C255.456 520.767 208.543 532.308 181.085 549.393C153.627 566.477 113.045 614.341 132.882 683.02C152.718 751.699 234.651 769.52 246.373 766.003Z" stroke="#793007" stroke-width="5"/>
<path d="M246.373 766.003C257.966 766.003 266.281 749.528 253.085 742.206C223.797 739.453 162.614 731.751 151.187 663.494C144.834 629.559 160.339 595.766 181.085 572.579C207.933 551.833 250.034 539.63 284.204 554.884C314.772 567.66 316.543 585.393 311.051 621.393C300.072 646.204 294.072 657.738 278.712 668.986C264.3 677.528 256.878 679.961 243.322 678.138C217.085 667.302 206.964 657.76 217.695 621.393C229.131 602.008 250.644 598.206 261.017 613.461C268.339 623.833 267.367 636.607 255.526 641.528C248.568 642.766 246.054 641.097 246.373 629.935C246.506 623.74 244.401 621.784 238.441 621.393C238.441 621.393 227.458 629.935 227.458 638.478C226.791 656.204 243.322 666.545 257.966 663.494C275.051 660.444 286.656 641.475 284.204 614.681C276.386 588.269 263.663 581.787 225.627 585.393C197.752 602.13 190.625 615.595 192.068 646.41C196.739 684.592 223.797 699.494 253.085 699.494C288.475 697.664 308.851 679.01 329.356 635.427C343.39 585.393 334.238 549.393 290.916 532.918C255.456 520.767 208.543 532.308 181.085 549.393C153.627 566.477 113.045 614.341 132.882 683.02C152.718 751.699 234.651 769.52 246.373 766.003Z" stroke="black" stroke-opacity="0.2" stroke-width="5"/>
</g>
</g>
<defs>
<filter id="filter0_d_2005_3494" x="0" y="0.951546" width="470" height="879.421" filterUnits="userSpaceOnUse" color-interpolation-filters="sRGB">
<feFlood flood-opacity="0" result="BackgroundImageFix"/>
<feColorMatrix in="SourceAlpha" type="matrix" values="0 0 0 0 0 0 0 0 0 0 0 0 0 0 0 0 0 0 127 0" result="hardAlpha"/>
<feOffset dy="4"/>
<feGaussianBlur stdDeviation="9.5"/>
<feComposite in2="hardAlpha" operator="out"/>
<feColorMatrix type="matrix" values="0 0 0 0 0 0 0 0 0 0 0 0 0 0 0 0 0 0 0.25 0"/>
<feBlend mode="normal" in2="BackgroundImageFix" result="effect1_dropShadow_2005_3494"/>
<feBlend mode="normal" in="SourceGraphic" in2="effect1_dropShadow_2005_3494" result="shape"/>
</filter>
<filter id="filter1_gn_2005_3494" x="127.333" y="114.525" width="172.744" height="211.058" filterUnits="userSpaceOnUse" color-interpolation-filters="sRGB">
<feFlood flood-opacity="0" result="BackgroundImageFix"/>
<feBlend mode="normal" in="SourceGraphic" in2="BackgroundImageFix" result="shape"/>
<feTurbulence type="fractalNoise" baseFrequency="0.048971597105264664 0.048971597105264664" numOctaves="3" seed="7798" />
<feDisplacementMap in="shape" scale="12.640000343322754" xChannelSelector="R" yChannelSelector="G" result="displacedImage" width="100%" height="100%" />
<feMerge result="effect1_texture_2005_3494">
<feMergeNode in="displacedImage"/>
</feMerge>
<feTurbulence type="fractalNoise" baseFrequency="2 2" stitchTiles="stitch" numOctaves="3" result="noise" seed="1647" />
<feColorMatrix in="noise" type="luminanceToAlpha" result="alphaNoise" />
<feComponentTransfer in="alphaNoise" result="coloredNoise1">
<feFuncA type="discrete" tableValues="0 0 0 0 1 1 1 1 1 1 1 1 1 1 1 1 1 1 1 1 1 1 1 1 1 1 1 1 1 1 1 1 1 1 1 1 1 1 1 1 1 1 1 1 1 1 0 0 0 0 0 0 0 0 0 0 0 0 0 0 0 0 0 0 0 0 0 0 0 0 0 0 0 0 0 0 0 0 0 0 0 0 0 0 0 0 0 0 0 0 0 0 0 0 0 0 0 0 0 0 "/>
</feComponentTransfer>
<feComposite operator="in" in2="effect1_texture_2005_3494" in="coloredNoise1" result="noise1Clipped" />
<feComponentTransfer in="alphaNoise" result="coloredNoise2">
<feFuncA type="discrete" tableValues="0 0 0 0 0 0 0 0 0 0 0 0 0 0 0 0 0 0 0 0 0 0 0 0 0 0 0 0 0 0 0 0 0 0 0 0 0 0 0 0 0 0 0 0 0 0 0 0 0 0 0 0 0 0 1 1 1 1 1 1 1 1 1 1 1 1 1 1 1 1 1 1 1 1 1 1 1 1 1 1 1 1 1 1 1 1 1 1 1 1 1 1 1 1 1 1 0 0 0 0 "/>
</feComponentTransfer>
<feComposite operator="in" in2="effect1_texture_2005_3494" in="coloredNoise2" result="noise2Clipped" />
<feFlood flood-color="rgba(0, 0, 0, 0.25)" result="color1Flood" />
<feComposite operator="in" in2="noise1Clipped" in="color1Flood" result="color1" />
<feFlood flood-color="rgba(255, 255, 255, 0.25)" result="color2Flood" />
<feComposite operator="in" in2="noise2Clipped" in="color2Flood" result="color2" />
<feMerge result="effect2_noise_2005_3494">
<feMergeNode in="effect1_texture_2005_3494" />
<feMergeNode in="color1" />
<feMergeNode in="color2" />
</feMerge>
</filter>
<filter id="filter2_gn_2005_3494" x="214.548" y="9.65155" width="129.875" height="315.911" filterUnits="userSpaceOnUse" color-interpolation-filters="sRGB">
<feFlood flood-opacity="0" result="BackgroundImageFix"/>
<feBlend mode="normal" in="SourceGraphic" in2="BackgroundImageFix" result="shape"/>
<feTurbulence type="fractalNoise" baseFrequency="0.049019608646631241 0.049019608646631241" numOctaves="3" seed="1785" />
<feDisplacementMap in="shape" scale="12.600000381469727" xChannelSelector="R" yChannelSelector="G" result="displacedImage" width="100%" height="100%" />
<feMerge result="effect1_texture_2005_3494">
<feMergeNode in="displacedImage"/>
</feMerge>
<feTurbulence type="fractalNoise" baseFrequency="2 2" stitchTiles="stitch" numOctaves="3" result="noise" seed="3508" />
<feColorMatrix in="noise" type="luminanceToAlpha" result="alphaNoise" />
<feComponentTransfer in="alphaNoise" result="coloredNoise1">
<feFuncA type="discrete" tableValues="0 0 0 0 1 1 1 1 1 1 1 1 1 1 1 1 1 1 1 1 1 1 1 1 1 1 1 1 1 1 1 1 1 1 1 1 1 1 1 1 1 1 1 1 1 1 0 0 0 0 0 0 0 0 0 0 0 0 0 0 0 0 0 0 0 0 0 0 0 0 0 0 0 0 0 0 0 0 0 0 0 0 0 0 0 0 0 0 0 0 0 0 0 0 0 0 0 0 0 0 "/>
</feComponentTransfer>
<feComposite operator="in" in2="effect1_texture_2005_3494" in="coloredNoise1" result="noise1Clipped" />
<feComponentTransfer in="alphaNoise" result="coloredNoise2">
<feFuncA type="discrete" tableValues="0 0 0 0 0 0 0 0 0 0 0 0 0 0 0 0 0 0 0 0 0 0 0 0 0 0 0 0 0 0 0 0 0 0 0 0 0 0 0 0 0 0 0 0 0 0 0 0 0 0 0 0 0 0 1 1 1 1 1 1 1 1 1 1 1 1 1 1 1 1 1 1 1 1 1 1 1 1 1 1 1 1 1 1 1 1 1 1 1 1 1 1 1 1 1 1 0 0 0 0 "/>
</feComponentTransfer>
<feComposite operator="in" in2="effect1_texture_2005_3494" in="coloredNoise2" result="noise2Clipped" />
<feFlood flood-color="rgba(0, 0, 0, 0.25)" result="color1Flood" />
<feComposite operator="in" in2="noise1Clipped" in="color1Flood" result="color1" />
<feFlood flood-color="rgba(255, 255, 255, 0.25)" result="color2Flood" />
<feComposite operator="in" in2="noise2Clipped" in="color2Flood" result="color2" />
<feMerge result="effect2_noise_2005_3494">
<feMergeNode in="effect1_texture_2005_3494" />
<feMergeNode in="color1" />
<feMergeNode in="color2" />
</feMerge>
</filter>
<filter id="filter3_dn_2005_3494" x="2" y="312.627" width="466" height="140.17" filterUnits="userSpaceOnUse" color-interpolation-filters="sRGB">
<feFlood flood-opacity="0" result="BackgroundImageFix"/>
<feColorMatrix in="SourceAlpha" type="matrix" values="0 0 0 0 0 0 0 0 0 0 0 0 0 0 0 0 0 0 127 0" result="hardAlpha"/>
<feOffset dy="-3"/>
<feGaussianBlur stdDeviation="8.5"/>
<feComposite in2="hardAlpha" operator="out"/>
<feColorMatrix type="matrix" values="0 0 0 0 0.0200629 0 0 0 0 0.249727 0 0 0 0 0.298077 0 0 0 1 0"/>
<feBlend mode="normal" in2="BackgroundImageFix" result="effect1_dropShadow_2005_3494"/>
<feBlend mode="normal" in="SourceGraphic" in2="BackgroundImageFix" result="shape"/>
<feTurbulence type="fractalNoise" baseFrequency="0.11210761964321136 0.11210761964321136" stitchTiles="stitch" numOctaves="3" result="noise" seed="5284" />
<feComponentTransfer in="noise" result="coloredNoise1">
<feFuncR type="linear" slope="2" intercept="-0.5" />
<feFuncG type="linear" slope="2" intercept="-0.5" />
<feFuncB type="linear" slope="2" intercept="-0.5" />
<feFuncA type="discrete" tableValues="0 0 0 1 1 1 1 1 1 1 1 1 1 1 1 1 1 1 1 1 1 1 1 1 1 1 1 1 1 1 1 1 1 1 1 1 1 1 1 1 1 1 1 1 1 1 1 0 0 0 0 0 0 0 0 0 0 0 0 0 0 0 0 0 0 0 0 0 0 0 0 0 0 0 0 0 0 0 0 0 0 0 0 0 0 0 0 0 0 0 0 0 0 0 0 0 0 0 0 0 "/>
</feComponentTransfer>
<feComposite operator="in" in2="shape" in="coloredNoise1" result="noise1Clipped" />
<feComponentTransfer in="noise1Clipped" result="color1">
<feFuncA type="table" tableValues="0 0.15" />
</feComponentTransfer>
<feMerge result="effect2_noise_2005_3494">
<feMergeNode in="shape" />
<feMergeNode in="color1" />
</feMerge>
<feBlend mode="normal" in="effect2_noise_2005_3494" in2="effect1_dropShadow_2005_3494" result="effect2_noise_2005_3494"/>
</filter>
<filter id="filter4_g_2005_3494" x="15.3393" y="393.653" width="438.093" height="458.831" filterUnits="userSpaceOnUse" color-interpolation-filters="sRGB">
<feFlood flood-opacity="0" result="BackgroundImageFix"/>
<feBlend mode="normal" in="SourceGraphic" in2="BackgroundImageFix" result="shape"/>
<feTurbulence type="fractalNoise" baseFrequency="0.2232142835855484 0.2232142835855484" numOctaves="3" seed="8624" />
<feDisplacementMap in="shape" scale="200" xChannelSelector="R" yChannelSelector="G" result="displacedImage" width="100%" height="100%" />
<feMerge result="effect1_texture_2005_3494">
<feMergeNode in="displacedImage"/>
</feMerge>
</filter>
<filter id="filter5_dg_2005_3494" x="81.1039" y="485.381" width="300.847" height="331.541" filterUnits="userSpaceOnUse" color-interpolation-filters="sRGB">
<feFlood flood-opacity="0" result="BackgroundImageFix"/>
<feColorMatrix in="SourceAlpha" type="matrix" values="0 0 0 0 0 0 0 0 0 0 0 0 0 0 0 0 0 0 127 0" result="hardAlpha"/>
<feOffset dy="4"/>
<feGaussianBlur stdDeviation="22"/>
<feComposite in2="hardAlpha" operator="out"/>
<feColorMatrix type="matrix" values="0 0 0 0 0 0 0 0 0 0 0 0 0 0 0 0 0 0 0.25 0"/>
<feBlend mode="normal" in2="BackgroundImageFix" result="effect1_dropShadow_2005_3494"/>
<feBlend mode="normal" in="SourceGraphic" in2="effect1_dropShadow_2005_3494" result="shape"/>
<feTurbulence type="fractalNoise" baseFrequency="0.042643923312425613 0.042643923312425613" numOctaves="3" seed="8624" />
<feDisplacementMap in="shape" scale="11.800000190734863" xChannelSelector="R" yChannelSelector="G" result="displacedImage" width="100%" height="100%" />
<feMerge result="effect2_texture_2005_3494">
<feMergeNode in="displacedImage"/>
</feMerge>
</filter>
</defs>
</svg>
