<?xml version="1.0" encoding="UTF-8"?>
<svg width="160" height="40" viewBox="0 0 160 40" fill="none" xmlns="http://www.w3.org/2000/svg">
  <path d="M17.7 27.86C17.7 29.44 17.34 30.76 16.62 31.82C15.9 32.88 14.9 33.68 13.62 34.22C12.36 34.76 10.9 35.03 9.24 35.03C7.58 35.03 6.11 34.76 4.83 34.22C3.57 33.68 2.58 32.88 1.86 31.82C1.14 30.76 0.78 29.44 0.78 27.86C0.78 26.28 1.14 24.96 1.86 23.9C2.58 22.84 3.57 22.04 4.83 21.5C6.11 20.96 7.58 20.69 9.24 20.69C10.9 20.69 12.36 20.96 13.62 21.5C14.9 22.04 15.9 22.84 16.62 23.9C17.34 24.96 17.7 26.28 17.7 27.86ZM13.1 27.86C13.1 26.96 12.93 26.21 12.59 25.61C12.27 25.01 11.8 24.56 11.18 24.26C10.58 23.96 9.87 23.81 9.04 23.81C8.21 23.81 7.49 23.96 6.87 24.26C6.27 24.56 5.8 25.01 5.46 25.61C5.14 26.21 4.98 26.96 4.98 27.86C4.98 28.76 5.14 29.51 5.46 30.11C5.8 30.71 6.27 31.16 6.87 31.46C7.49 31.76 8.21 31.91 9.04 31.91C9.87 31.91 10.58 31.76 11.18 31.46C11.8 31.16 12.27 30.71 12.59 30.11C12.93 29.51 13.1 28.76 13.1 27.86ZM30.6796 23.07C31.1196 22.49 31.7196 22.03 32.4796 21.69C33.2396 21.35 34.1196 21.18 35.1196 21.18C36.3996 21.18 37.5396 21.52 38.5396 22.2C39.5396 22.86 40.3196 23.82 40.8796 25.08C41.4396 26.32 41.7196 27.79 41.7196 29.49C41.7196 31.19 41.4396 32.67 40.8796 33.93C40.3196 35.17 39.5396 36.13 38.5396 36.81C37.5396 37.47 36.3996 37.8 35.1196 37.8C34.1196 37.8 33.2396 37.63 32.4796 37.29C31.7396 36.95 31.1396 36.49 30.6796 35.91V37.5H26.2996V16.2H30.6796V23.07ZM37.2196 29.49C37.2196 28.29 36.9196 27.36 36.3196 26.7C35.7396 26.02 34.9996 25.68 34.0996 25.68C33.2196 25.68 32.4796 26.02 31.8796 26.7C31.2996 27.36 31.0096 28.29 31.0096 29.49C31.0096 30.69 31.2996 31.63 31.8796 32.31C32.4796 32.97 33.2196 33.3 34.0996 33.3C34.9796 33.3 35.7196 32.97 36.3196 32.31C36.9196 31.63 37.2196 30.69 37.2196 29.49ZM54.281 37.5L48.581 30.39V37.5H44.201V16.2H48.581V28.23L54.221 21.48H59.881L52.901 29.31L59.881 37.5H54.281ZM72.2124 34.08C71.5924 35.18 70.7224 36.04 69.6024 36.66C68.5024 37.28 67.2524 37.59 65.8524 37.59C64.3724 37.59 63.0524 37.25 61.8924 36.57C60.7324 35.87 59.8224 34.9 59.1624 33.66C58.5224 32.42 58.2024 30.98 58.2024 29.34C58.2024 27.7 58.5224 26.26 59.1624 25.02C59.8224 23.78 60.7324 22.82 61.8924 22.14C63.0524 21.46 64.3724 21.12 65.8524 21.12C67.2524 21.12 68.4924 21.43 69.5724 22.05C70.6724 22.65 71.5424 23.5 72.1824 24.6C72.8224 25.7 73.1424 26.98 73.1424 28.44H62.4024C62.5624 29.44 62.9224 30.22 63.4824 30.78C64.0624 31.34 64.8024 31.62 65.7024 31.62C66.3424 31.62 66.8824 31.48 67.3224 31.2C67.7824 30.9 68.1324 30.51 68.3724 30.03L72.2124 34.08ZM68.5524 25.92C68.4324 25.08 68.1024 24.42 67.5624 23.94C67.0424 23.46 66.3724 23.22 65.5524 23.22C64.7324 23.22 64.0524 23.46 63.5124 23.94C62.9724 24.4 62.6524 25.06 62.5524 25.92H68.5524ZM84.2832 21.18C86.1232 21.18 87.5632 21.8 88.6032 23.04C89.6632 24.26 90.1932 25.98 90.1932 28.2V37.5H85.8132V28.92C85.8132 27.78 85.5532 26.9 85.0332 26.28C84.5332 25.66 83.8332 25.35 82.9332 25.35C81.9532 25.35 81.1832 25.69 80.6232 26.37C80.0632 27.03 79.7832 28.02 79.7832 29.34V37.5H75.4032V21.48H79.7832V23.31C80.2632 22.67 80.8932 22.16 81.6732 21.78C82.4732 21.38 83.3432 21.18 84.2832 21.18ZM107.784 21.48L100.504 37.5H95.6645L98.9645 30.12L92.6645 21.48H97.5045L101.224 26.46L104.944 21.48H107.784ZM125.115 25.92C125.115 26.86 124.975 27.75 124.695 28.59C124.415 29.41 124.015 30.13 123.495 30.75C122.975 31.37 122.345 31.86 121.605 32.22C120.885 32.58 120.095 32.76 119.235 32.76C118.695 32.76 118.165 32.7 117.645 32.58C117.125 32.46 116.645 32.28 116.205 32.04V37.2H113.745V19.32H115.995V20.97C116.415 20.57 116.905 20.25 117.465 20.01C118.025 19.77 118.645 19.65 119.325 19.65C120.165 19.65 120.945 19.83 121.665 20.19C122.385 20.55 123.015 21.05 123.555 21.69C124.095 22.31 124.505 23.03 124.785 23.85C125.005 24.67 125.115 25.54 125.115 26.46V25.92ZM122.655 26.46C122.655 25.82 122.585 25.23 122.445 24.69C122.305 24.13 122.075 23.66 121.755 23.28C121.455 22.88 121.075 22.57 120.615 22.35C120.155 22.13 119.625 22.02 119.025 22.02C118.465 22.02 117.975 22.12 117.555 22.32C117.135 22.52 116.775 22.81 116.475 23.19C116.175 23.57 115.955 24.03 115.815 24.57C115.675 25.11 115.605 25.7 115.605 26.34V26.46C115.605 27.1 115.675 27.69 115.815 28.23C115.955 28.77 116.175 29.23 116.475 29.61C116.795 29.99 117.175 30.29 117.615 30.51C118.055 30.71 118.565 30.81 119.145 30.81C119.725 30.81 120.235 30.7 120.675 30.48C121.135 30.26 121.515 29.96 121.815 29.58C122.115 29.18 122.335 28.72 122.475 28.2C122.595 27.66 122.655 27.08 122.655 26.46ZM138.089 29.16C138.089 29.32 138.079 29.52 138.059 29.76C138.059 29.98 138.049 30.15 138.029 30.27H128.909C128.949 30.73 129.059 31.12 129.239 31.44C129.419 31.76 129.649 32.01 129.929 32.19C130.209 32.37 130.529 32.5 130.889 32.58C131.249 32.66 131.619 32.7 131.999 32.7C132.599 32.7 133.119 32.61 133.559 32.43C134.019 32.25 134.439 31.99 134.819 31.65L136.949 33.09C136.389 33.73 135.699 34.22 134.879 34.56C134.059 34.9 133.139 35.07 132.119 35.07C131.239 35.07 130.409 34.93 129.629 34.65C128.849 34.37 128.169 33.96 127.589 33.42C127.009 32.88 126.549 32.22 126.209 31.44C125.889 30.66 125.729 29.78 125.729 28.8C125.729 27.82 125.889 26.94 126.209 26.16C126.529 25.36 126.969 24.7 127.529 24.18C128.089 23.64 128.749 23.23 129.509 22.95C130.269 22.65 131.089 22.5 131.969 22.5C132.809 22.5 133.579 22.64 134.279 22.92C134.999 23.2 135.619 23.6 136.139 24.12C136.659 24.64 137.059 25.27 137.339 26.01C137.839 27.41 138.089 28.28 138.089 29.16ZM135.029 28.02C135.009 27.58 134.929 27.2 134.789 26.88C134.669 26.56 134.489 26.3 134.249 26.1C134.029 25.9 133.769 25.75 133.469 25.65C133.169 25.55 132.859 25.5 132.539 25.5C131.859 25.5 131.269 25.7 130.769 26.1C130.269 26.5 129.979 27.14 129.899 28.02H135.029ZM148.193 33.99C147.553 34.39 146.843 34.68 146.063 34.86C145.283 35.04 144.483 35.13 143.663 35.13C142.703 35.13 141.823 34.98 141.023 34.68C140.223 34.38 139.533 33.96 138.953 33.42C138.373 32.88 137.923 32.22 137.603 31.44C137.283 30.66 137.123 29.78 137.123 28.8C137.123 27.82 137.283 26.94 137.603 26.16C137.923 25.38 138.373 24.72 138.953 24.18C139.533 23.64 140.223 23.22 141.023 22.92C141.823 22.62 142.703 22.47 143.663 22.47C144.423 22.47 145.183 22.55 145.943 22.71C146.703 22.87 147.393 23.15 148.013 23.55L146.663 25.89C146.203 25.61 145.723 25.4 145.223 25.26C144.723 25.12 144.193 25.05 143.633 25.05C143.113 25.05 142.633 25.14 142.193 25.32C141.753 25.48 141.363 25.72 141.023 26.04C140.703 26.36 140.453 26.75 140.273 27.21C140.093 27.67 140.003 28.2 140.003 28.8C140.003 29.4 140.093 29.93 140.273 30.39C140.453 30.85 140.703 31.24 141.023 31.56C141.363 31.88 141.753 32.12 142.193 32.28C142.633 32.44 143.113 32.52 143.633 32.52C144.273 32.52 144.853 32.44 145.373 32.28C145.893 32.12 146.383 31.88 146.843 31.56L148.193 33.99ZM160.086 35.07C159.206 35.07 158.356 34.93 157.536 34.65C156.736 34.37 156.036 33.96 155.436 33.42C154.856 32.88 154.396 32.22 154.056 31.44C153.736 30.66 153.576 29.78 153.576 28.8C153.576 27.82 153.736 26.94 154.056 26.16C154.396 25.36 154.856 24.7 155.436 24.18C156.036 23.64 156.736 23.23 157.536 22.95C158.356 22.65 159.206 22.5 160.086 22.5C160.966 22.5 161.806 22.65 162.606 22.95C163.426 23.23 164.126 23.64 164.706 24.18C165.306 24.7 165.766 25.36 166.086 26.16C166.426 26.94 166.596 27.82 166.596 28.8C166.596 29.78 166.426 30.66 166.086 31.44C165.766 32.22 165.306 32.88 164.706 33.42C164.126 33.96 163.426 34.37 162.606 34.65C161.806 34.93 160.966 35.07 160.086 35.07ZM160.086 32.49C160.646 32.49 161.146 32.4 161.586 32.22C162.026 32.04 162.396 31.79 162.696 31.47C163.016 31.15 163.256 30.77 163.416 30.33C163.576 29.87 163.656 29.36 163.656 28.8C163.656 28.24 163.576 27.73 163.416 27.27C163.256 26.81 163.016 26.43 162.696 26.13C162.396 25.81 162.026 25.56 161.586 25.38C161.146 25.2 160.646 25.11 160.086 25.11C159.526 25.11 159.026 25.2 158.586 25.38C158.146 25.56 157.766 25.81 157.446 26.13C157.146 26.43 156.906 26.81 156.726 27.27C156.566 27.73 156.486 28.24 156.486 28.8C156.486 29.36 156.566 29.87 156.726 30.33C156.906 30.77 157.146 31.15 157.446 31.47C157.766 31.79 158.146 32.04 158.586 32.22C159.026 32.4 159.526 32.49 160.086 32.49Z" fill="#005F73"/>
</svg>
